<svg width="42" height="42" viewBox="0 0 42 42" fill="none" xmlns="http://www.w3.org/2000/svg">
<path d="M40.3333 5.80253H37.6667V1.80281C37.668 1.36104 37.3706 1.00157 37.0023 1.00007C36.9828 0.999971 36.9634 1.00097 36.944 1.00287L35.2047 1.17886C30.9867 1.59743 26.8498 2.80784 22.9447 4.7658L21 5.73613L19.0573 4.769C15.1518 2.81074 11.0143 1.60013 6.796 1.18126L5.056 1.00287C4.68908 0.965773 4.36658 1.29255 4.33567 1.73282C4.334 1.75612 4.33325 1.77951 4.33333 1.80281V5.80253H1.66667C1.2985 5.80253 1 6.1607 1 6.60247V40.2001C1 40.6418 1.2985 41 1.66667 41H40.3333C40.7015 41 41 40.6418 41 40.2001V6.60247C41 6.1607 40.7015 5.80253 40.3333 5.80253ZM2.33333 39.4017V7.40241H4.33333V35.4004C4.33208 35.817 4.59742 36.1649 4.94333 36.2003L6.73733 36.3843C7.22625 36.4334 7.71508 36.4939 8.204 36.5659C8.36733 36.5891 8.52933 36.6203 8.69267 36.6459C9.016 36.6979 9.33933 36.7499 9.66133 36.8115C9.85333 36.8483 10.0447 36.8915 10.236 36.9323C10.528 36.9939 10.82 37.0555 11.1107 37.1243C11.3107 37.1723 11.5107 37.2251 11.7107 37.2771C11.9913 37.3491 12.272 37.4227 12.5513 37.5026C12.7513 37.5602 12.9547 37.6218 13.156 37.6834C13.4313 37.7682 13.706 37.8546 13.98 37.9458C14.18 38.013 14.38 38.0834 14.58 38.1538C14.852 38.2503 15.1233 38.3506 15.394 38.4546C15.5922 38.5303 15.79 38.6082 15.9873 38.6882C16.26 38.7978 16.5307 38.9129 16.8013 39.0305C16.9933 39.1105 17.186 39.1977 17.3767 39.2849C17.4593 39.3225 17.5413 39.3649 17.6233 39.4017H2.33333ZM20.3333 39.0001L19.104 38.3842C15.2015 36.4223 11.0665 35.2076 6.85 34.7844L5.66667 34.6661V2.67315L6.684 2.77554C10.7645 3.18011 14.7668 4.35083 18.5447 6.24489L20.3333 7.13603V39.0001ZM21.6667 39.0001V7.13603L23.4573 6.24409C27.2346 4.35043 31.2362 3.18001 35.316 2.77554L36.3333 2.67315V34.6637L35.238 34.7708C31.0189 35.1911 26.8803 36.3986 22.9713 38.3498L21.6667 39.0001ZM39.6667 39.4001H24.3867C24.478 39.3577 24.5687 39.3129 24.66 39.2713C24.86 39.1793 25.06 39.0921 25.2647 39.0049C25.526 38.8913 25.7884 38.7813 26.052 38.6746C26.2573 38.5946 26.464 38.5146 26.67 38.4346C26.9333 38.3338 27.198 38.2378 27.4627 38.1434C27.6707 38.0698 27.8793 37.997 28.088 37.9282C28.3547 37.8386 28.6213 37.7546 28.8947 37.6722C29.1013 37.609 29.3087 37.5458 29.5167 37.4866C29.794 37.4067 30.0733 37.3347 30.3527 37.2635C30.5527 37.2115 30.7527 37.1579 30.9567 37.1099C31.25 37.0403 31.5447 36.9787 31.8387 36.9171C32.0293 36.8771 32.2193 36.8371 32.4107 36.7971C32.7393 36.7347 33.0687 36.6811 33.3987 36.6283C33.5567 36.6035 33.7147 36.5731 33.8733 36.5483C34.3623 36.4774 34.8536 36.4168 35.3473 36.3667L37.0547 36.2003C37.4013 36.1661 37.6678 35.8178 37.6667 35.4004V7.40241H39.6667V39.4001Z" fill="black" stroke="black" stroke-width="0.5"/>
</svg>
