<svg width="42" height="42" viewBox="0 0 42 42" fill="none" xmlns="http://www.w3.org/2000/svg">
<path d="M41 25.4712C41 26.855 40.4361 28.1875 39.462 29.1612L29.1576 39.4625C27.107 41.5125 23.7748 41.5125 21.7241 39.4625L2.55079 20.2949C1.42294 19.1674 0.910285 17.6299 1.01282 16.0924L1.9356 6.66242C2.19193 4.15116 4.14002 2.20366 6.65203 1.9474L16.0336 1.0249C17.5716 0.871152 19.1608 1.4349 20.2374 2.56241L39.462 21.73C40.4361 22.7037 41 24.0875 41 25.4712ZM2.19193 16.5537C2.19193 17.6299 2.60205 18.6549 3.37104 19.4237L22.5444 38.6425C24.1336 40.2312 26.7482 40.2312 28.3374 38.6425L38.6418 28.3412C40.231 26.7525 40.231 24.1387 38.6418 22.55L19.4684 3.38241C18.5969 2.51116 17.4178 2.10116 16.1874 2.20366L6.80583 3.12616C4.85774 3.33116 3.31977 4.86866 3.11471 6.81617L2.19193 16.1949C2.19193 16.2974 2.19193 16.4512 2.19193 16.5537Z" fill="black" stroke="black"/>
<path d="M18.1383 13.8143C18.1383 16.2103 16.2011 18.0965 13.8052 18.0965C11.4092 18.0965 9.52295 16.1594 9.52295 13.7634C9.52295 11.3674 11.4601 9.48116 13.8561 9.48116C14.9777 9.48116 16.0992 9.93997 16.8639 10.7556C17.6795 11.5713 18.1383 12.6928 18.1383 13.8143ZM10.6955 13.8143C10.6955 15.5476 12.1229 16.975 13.8561 16.975C15.5894 16.975 17.0168 15.5476 17.0168 13.8143C17.0168 12.9987 16.7109 12.183 16.0992 11.5713C14.8757 10.3478 12.8875 10.3478 11.6641 11.5713C11.0013 12.183 10.6955 12.9987 10.6955 13.8143Z" fill="black" stroke="black"/>
</svg>
