<svg width="40" height="40" viewBox="0 0 40 40" fill="none" xmlns="http://www.w3.org/2000/svg">
<path d="M39.5 19.4595L39.5 35.4016C39.5 35.402 39.5 35.4024 39.5 35.4027C39.4915 37.7942 38.0064 39.5 36.4274 39.5H34.1709C32.5918 39.5 31.1066 37.7939 31.0983 35.4022C31.0983 35.402 31.0983 35.4018 31.0983 35.4016L31.0983 33.1492V32.6492H30.5983H9.40171H8.90171V33.1492V35.4025C8.89332 37.7941 7.40817 39.5 5.82906 39.5H3.57265C1.99354 39.5 0.508383 37.7941 0.5 35.4025V19.8674C0.5 18.1167 1.09792 16.4743 2.09661 15.3749L2.10351 15.3673L2.11009 15.3594L3.3665 13.8566L3.43441 13.7754L3.46357 13.6736L6.48028 3.14455C6.48035 3.14432 6.48042 3.14408 6.48049 3.14384C6.96181 1.48195 8.14688 0.5 9.34188 0.5H31.1946C32.3945 0.509862 33.5782 1.48636 34.0582 3.14455L37.1177 13.8064L37.1422 13.8918L37.1945 13.9635L38.0663 15.1568L38.0736 15.1668L38.0814 15.1764C38.9745 16.2804 39.4916 17.8229 39.5 19.4595ZM39.5 19.4595V19.4586H40M39.5 19.4595C39.5 19.46 39.5 19.4605 39.5 19.461L40 19.4586M40 19.4586C39.9915 17.7238 39.4444 16.0663 38.4701 14.8619M40 19.4586V35.4033C39.9915 37.9448 38.3932 40 36.4274 40H34.1709C32.2051 40 30.6068 37.9448 30.5983 35.4033L38.4701 14.8619M38.4701 14.8619L37.5983 13.6685L38.4701 14.8619ZM7.12677 3.61711L7.12628 3.61884L4.45961 12.9006L4.27629 13.5387H4.94017H22.0171H22.4634L22.5139 13.0952C22.8741 9.93075 24.7787 7.57537 27.0507 7.14313L27.052 7.14287C29.8527 6.60218 32.666 9.10576 33.1186 13.095L33.1689 13.5387H33.6154H35.6068H36.2707L36.0874 12.9006L33.4207 3.61884L33.4198 3.61558C33.1051 2.54761 32.2637 1.70994 31.2051 1.70994H9.34188C8.28563 1.70994 7.44224 2.5338 7.12677 3.61711ZM31.8718 13.5387H32.4603L32.3652 12.9579C32.0019 10.7386 30.6482 8.91047 28.7993 8.40188L28.7972 8.40131C26.1479 7.68504 23.7461 9.89201 23.25 12.9588L23.1562 13.5387H23.7436H31.8718ZM8.19231 35.4065V35.4033V33.1492V32.6492H7.69231H3.57265C2.99599 32.6492 2.44017 32.4693 2.03107 32.1255L1.2094 31.435V32.5083L1.20939 35.4033L1.20941 35.4065C1.21892 36.8822 2.16184 38.2901 3.57265 38.2901H5.82906C7.23987 38.2901 8.18279 36.8822 8.19231 35.4065ZM38.7906 35.4065V35.4033V32.5083V31.435L37.9689 32.1255C37.5598 32.4693 37.004 32.6492 36.4274 32.6492H32.3077H31.8077V33.1492L31.8077 35.4033L31.8077 35.4066C31.8172 36.8695 32.7589 38.2901 34.1709 38.2901H36.4274C37.8382 38.2901 38.7811 36.8822 38.7906 35.4065ZM38.7821 28.0746V19.4586C38.7821 18.2327 38.3918 17.036 37.684 16.1544C37.6713 16.1355 37.6591 16.1197 37.6486 16.1071C37.6424 16.0997 37.6365 16.093 37.6311 16.0871L36.8158 14.9562L36.6662 14.7486H36.4103H4.04274H3.80647L3.65645 14.9312L2.49406 16.3455L2.48936 16.3512L2.48483 16.3571L2.46291 16.3854C1.65798 17.2743 1.2094 18.5532 1.2094 19.8674L1.20939 28.5746L1.20941 28.5778C1.21893 30.0549 2.17243 31.4526 3.57527 31.4392H36.4247C37.8289 31.4526 38.7811 30.0421 38.7906 28.5778L38.7939 28.0746H38.7821Z" fill="black" stroke="black"/>
<path d="M11.4558 19.6685H4.94695C4.46963 19.6685 4.0791 20.1658 4.0791 20.7735V26.5193C4.0791 27.1271 4.46963 27.6243 4.94695 27.6243H11.4558C11.9331 27.6243 12.3237 27.1271 12.3237 26.5193V20.7735C12.3237 20.1658 11.9331 19.6685 11.4558 19.6685ZM10.588 25.4144H5.8148V21.8785H10.588V25.4144Z" fill="black"/>
<path d="M35.6687 19.6685H29.1598C28.6825 19.6685 28.292 20.1658 28.292 20.7735V26.5193C28.292 27.1271 28.6825 27.6243 29.1598 27.6243H35.6687C36.146 27.6243 36.5366 27.1271 36.5366 26.5193V20.7735C36.5366 20.1658 36.146 19.6685 35.6687 19.6685ZM34.8009 25.4144H30.0277V21.8785H34.8009V25.4144Z" fill="black"/>
<path d="M24.4993 24.3094H16.1159C15.6386 24.3094 15.248 24.8066 15.248 25.4144C15.248 26.0221 15.6386 26.5193 16.1159 26.5193H24.4993C24.9766 26.5193 25.3672 26.0221 25.3672 25.4144C25.3672 24.8066 24.9766 24.3094 24.4993 24.3094Z" fill="black"/>
<path d="M24.4993 20.884H16.1159C15.6386 20.884 15.248 21.3812 15.248 21.9889C15.248 22.5967 15.6386 23.0939 16.1159 23.0939H24.4993C24.9766 23.0939 25.3672 22.5967 25.3672 21.9889C25.3672 21.3812 24.9766 20.884 24.4993 20.884Z" fill="black"/>
</svg>
