<svg width="22" height="22" viewBox="0 0 22 22" fill="none" xmlns="http://www.w3.org/2000/svg">
<path d="M11.5 5.30769C15.0899 5.30769 18 7.47739 18 10.1538C18 12.8303 15.0899 15 11.5 15C7.91015 15 5 12.8303 5 10.1538C5 7.47739 7.91015 5.30769 11.5 5.30769Z" fill="#FFE28C"/>
<g filter="url(#filter0_d)">
<path d="M11.5 4.23076C15.0899 4.23076 18 6.40045 18 9.07691C18 11.7534 15.0899 13.9231 11.5 13.9231C7.91015 13.9231 5 11.7534 5 9.07691C5 6.40046 7.91015 4.23076 11.5 4.23076Z" fill="#FFD559"/>
</g>
<g filter="url(#filter1_d)">
<path d="M11.5 3.15385C15.0899 3.15385 18 5.32355 18 8.00001C18 10.6765 15.0899 12.8462 11.5 12.8462C7.91015 12.8462 5 10.6765 5 8.00001C5 5.32355 7.91015 3.15385 11.5 3.15385Z" fill="#FFCB30"/>
<path d="M11.5 3.15385C15.0899 3.15385 18 5.32355 18 8.00001C18 10.6765 15.0899 12.8462 11.5 12.8462C7.91015 12.8462 5 10.6765 5 8.00001C5 5.32355 7.91015 3.15385 11.5 3.15385Z" fill="#FFCB30"/>
<path d="M11.5 3.15385C15.0899 3.15385 18 5.32355 18 8.00001C18 10.6765 15.0899 12.8462 11.5 12.8462C7.91015 12.8462 5 10.6765 5 8.00001C5 5.32355 7.91015 3.15385 11.5 3.15385Z" fill="#FFCB30"/>
</g>
<g filter="url(#filter2_d)">
<path d="M11.5 0.999996C15.0899 0.999996 18 3.41077 18 6.38461C18 9.35845 15.0899 11.7692 11.5 11.7692C7.91015 11.7692 5 9.35845 5 6.38461C5 3.41077 7.91015 0.999996 11.5 0.999996Z" fill="#FFBF00"/>
</g>
<defs>
<filter id="filter0_d" x="1" y="4.23074" width="21" height="17.6923" filterUnits="userSpaceOnUse" color-interpolation-filters="sRGB">
<feFlood flood-opacity="0" result="BackgroundImageFix"/>
<feColorMatrix in="SourceAlpha" type="matrix" values="0 0 0 0 0 0 0 0 0 0 0 0 0 0 0 0 0 0 127 0" result="hardAlpha"/>
<feOffset dy="4"/>
<feGaussianBlur stdDeviation="2"/>
<feColorMatrix type="matrix" values="0 0 0 0 0.4625 0 0 0 0 0.4625 0 0 0 0 0.4625 0 0 0 0.25 0"/>
<feBlend mode="normal" in2="BackgroundImageFix" result="effect1_dropShadow"/>
<feBlend mode="normal" in="SourceGraphic" in2="effect1_dropShadow" result="shape"/>
</filter>
<filter id="filter1_d" x="0" y="2.15384" width="21" height="17.6923" filterUnits="userSpaceOnUse" color-interpolation-filters="sRGB">
<feFlood flood-opacity="0" result="BackgroundImageFix"/>
<feColorMatrix in="SourceAlpha" type="matrix" values="0 0 0 0 0 0 0 0 0 0 0 0 0 0 0 0 0 0 127 0" result="hardAlpha"/>
<feOffset dx="-1" dy="3"/>
<feGaussianBlur stdDeviation="2"/>
<feColorMatrix type="matrix" values="0 0 0 0 0 0 0 0 0 0 0 0 0 0 0 0 0 0 0.13 0"/>
<feBlend mode="normal" in2="BackgroundImageFix" result="effect1_dropShadow"/>
<feBlend mode="normal" in="SourceGraphic" in2="effect1_dropShadow" result="shape"/>
</filter>
<filter id="filter2_d" x="0" y="0" width="21" height="18.7692" filterUnits="userSpaceOnUse" color-interpolation-filters="sRGB">
<feFlood flood-opacity="0" result="BackgroundImageFix"/>
<feColorMatrix in="SourceAlpha" type="matrix" values="0 0 0 0 0 0 0 0 0 0 0 0 0 0 0 0 0 0 127 0" result="hardAlpha"/>
<feOffset dx="-1" dy="3"/>
<feGaussianBlur stdDeviation="2"/>
<feColorMatrix type="matrix" values="0 0 0 0 0 0 0 0 0 0 0 0 0 0 0 0 0 0 0.13 0"/>
<feBlend mode="normal" in2="BackgroundImageFix" result="effect1_dropShadow"/>
<feBlend mode="normal" in="SourceGraphic" in2="effect1_dropShadow" result="shape"/>
</filter>
</defs>
</svg>
