<svg width="14" height="19" viewBox="0 0 14 19" fill="none" xmlns="http://www.w3.org/2000/svg">
<path d="M12.9616 6.83668C12.8911 6.72336 12.7854 6.66668 12.6445 6.66668H8.487L12.6093 1.425C12.6797 1.34 12.6797 1.22668 12.6093 1.14168C12.5388 1.05668 12.4331 1 12.2922 1H6.6549C6.51398 1 6.40828 1.05668 6.3378 1.14168L1.05286 9.64168C0.98238 9.72668 0.98238 9.84 1.05286 9.925C1.12334 10.01 1.26426 10.0667 1.36996 10.0667H4.99894L1.05286 17.6317C0.98238 17.745 1.05286 17.8867 1.19378 17.9717C1.229 18 1.29948 18 1.36996 18C1.47566 18 1.58135 17.9717 1.65183 17.915L12.9264 7.14832C12.9968 7.06332 13.0321 6.95 12.9616 6.83668ZM2.60308 16.1017L5.84453 9.86835C5.87975 9.78336 5.87975 9.69836 5.80931 9.61336C5.73883 9.55668 5.63313 9.50003 5.52743 9.50003H1.93367L6.8663 1.56668H11.658L7.50049 6.80832C7.43001 6.89332 7.43001 7.00664 7.50049 7.09164C7.57097 7.17664 7.67667 7.23332 7.81759 7.23332H11.9046L2.60308 16.1017Z" fill="#343434" stroke="#343434" stroke-width="0.5"/>
</svg>
