<svg width="12" height="17" viewBox="0 0 12 17" fill="none" xmlns="http://www.w3.org/2000/svg">
<path d="M11.967 5.83045C11.9091 5.7307 11.7845 5.66669 11.6472 5.66669H7.46485L11.5925 0.434929C11.6613 0.347671 11.6655 0.23717 11.6034 0.146791C11.5413 0.0561134 11.4227 0 11.2942 0H5.64719C5.51343 0 5.3913 0.060629 5.33132 0.156686L0.0372163 8.6567C-0.0175033 8.74426 -0.011506 8.84852 0.0527264 8.93209C0.117331 9.01566 0.230617 9.06666 0.353084 9.06666H3.98236L0.027662 16.6067C-0.0397552 16.7357 0.0202586 16.8853 0.168824 16.9584C0.225984 16.9864 0.289514 17 0.352712 17C0.454003 17 0.553888 16.9651 0.623084 16.8994L11.9172 6.13273C12.0057 6.04833 12.0248 5.93046 11.967 5.83045Z" fill="#FFCB30"/>
</svg>
