<svg width="42" height="42" viewBox="0 0 42 42" fill="none" xmlns="http://www.w3.org/2000/svg">
<path d="M39.5068 12.6252C39.3832 12.4999 39.2119 12.4286 39.0326 12.4286H20.0163C19.8369 12.4286 19.6656 12.4999 19.542 12.6252C19.4181 12.7504 19.3527 12.9196 19.3611 13.0933L19.8347 22.9543C19.8514 23.3041 20.1632 23.5801 20.5203 23.559C20.8821 23.5428 21.1617 23.2452 21.145 22.8948L20.7032 13.6985H38.3462L37.0956 39.7301H22.3688C22.0067 39.7301 21.7131 40.0141 21.7131 40.3651C21.7131 40.7161 22.0067 41 22.3688 41H37.7213C38.0716 41 38.3599 40.7334 38.3764 40.3947L39.6878 13.0933C39.6961 12.9196 39.6308 12.7504 39.5068 12.6252Z" fill="black" stroke="black" stroke-width="0.5"/>
<path d="M27.2296 35.9206H3.62305C3.26093 35.9206 2.96729 36.2045 2.96729 36.5555C2.96729 39.006 5.02642 41 7.55748 41H23.2952C25.8261 41 27.8854 39.0059 27.8854 36.5555C27.8853 36.2045 27.5917 35.9206 27.2296 35.9206ZM23.2952 39.7301H7.55748C5.97401 39.7301 4.64912 38.6376 4.34472 37.1904H26.5079C26.2033 38.6376 24.8784 39.7301 23.2952 39.7301Z" fill="black" stroke="black" stroke-width="0.5"/>
<path d="M27.2295 32.1111H3.62298C2.17677 32.1111 1 33.2501 1 34.6508C1 36.0515 2.17668 37.1905 3.62298 37.1905H27.2295C28.6757 37.1905 29.8525 36.0515 29.8525 34.6508C29.8525 33.2501 28.6757 32.1111 27.2295 32.1111ZM27.2295 35.9206H3.62298C2.89968 35.9206 2.31154 35.3508 2.31154 34.6508C2.31154 33.9508 2.89978 33.381 3.62298 33.381H27.2295C27.9528 33.381 28.541 33.9508 28.541 34.6508C28.541 35.3508 27.9527 35.9206 27.2295 35.9206Z" fill="black" stroke="black" stroke-width="0.5"/>
<path d="M29.1967 20.0476C26.2049 20.0476 23.5939 22.0046 22.8472 24.8059C22.7565 25.1457 22.9676 25.4916 23.3182 25.5797C23.6696 25.6665 24.0264 25.4631 24.117 25.1233C24.7141 22.8823 26.8029 21.3174 29.1967 21.3174C32.0893 21.3174 34.4426 23.596 34.4426 26.3967C34.4426 29.1975 32.0893 31.476 29.1967 31.476C28.5951 31.476 28.0059 31.3788 27.4459 31.1865C27.1049 31.0706 26.7298 31.2424 26.609 31.5729C26.488 31.9033 26.6667 32.266 27.008 32.3832C27.709 32.6237 28.4454 32.7459 29.1968 32.7459C32.8127 32.7459 35.754 29.8976 35.754 26.3967C35.754 22.8959 32.8126 20.0476 29.1967 20.0476Z" fill="black" stroke="black" stroke-width="0.5"/>
<path d="M16.7378 21.9524H14.1148C7.96792 21.9524 2.96729 26.7943 2.96729 32.746C2.96729 33.0969 3.26093 33.3809 3.62305 33.3809H27.2296C27.5917 33.3809 27.8854 33.097 27.8854 32.746C27.8853 26.7943 22.8846 21.9524 16.7378 21.9524ZM4.30053 32.1111C4.63922 27.1545 8.91147 23.2223 14.1148 23.2223H16.7378C21.9411 23.2223 26.2133 27.1545 26.552 32.1111H4.30053Z" fill="black" stroke="black" stroke-width="0.5"/>
<path d="M9.54568 25.7618H9.50404C9.1534 25.7618 8.86914 26.0461 8.86914 26.3967C8.86914 26.7473 9.1534 27.0316 9.50404 27.0316H9.54568C9.89633 27.0316 10.1806 26.7473 10.1806 26.3967C10.1806 26.0461 9.89633 25.7618 9.54568 25.7618Z" fill="black" stroke="black" stroke-width="0.5"/>
<path d="M8.88943 28.3014H8.84779C8.49715 28.3014 8.21289 28.5857 8.21289 28.9363C8.21289 29.287 8.49715 29.5712 8.84779 29.5712H8.88943C9.24008 29.5712 9.52433 29.287 9.52433 28.9363C9.52433 28.5857 9.24008 28.3014 8.88943 28.3014Z" fill="black" stroke="black" stroke-width="0.5"/>
<path d="M16.7581 25.1268H16.7164C16.3658 25.1268 16.0815 25.4111 16.0815 25.7617C16.0815 26.1124 16.3658 26.3966 16.7164 26.3966H16.7581C17.1087 26.3966 17.393 26.1124 17.393 25.7617C17.393 25.4111 17.1087 25.1268 16.7581 25.1268Z" fill="black" stroke="black" stroke-width="0.5"/>
<path d="M20.6927 28.3014H20.651C20.3004 28.3014 20.0161 28.5857 20.0161 28.9363C20.0161 29.287 20.3004 29.5712 20.651 29.5712H20.6927C21.0433 29.5712 21.3276 29.287 21.3276 28.9363C21.3276 28.5857 21.0433 28.3014 20.6927 28.3014Z" fill="black" stroke="black" stroke-width="0.5"/>
<path d="M14.7913 28.9364H14.7496C14.399 28.9364 14.1147 29.2206 14.1147 29.5713C14.1147 29.9219 14.399 30.2062 14.7496 30.2062H14.7913C15.1419 30.2062 15.4262 29.9219 15.4262 29.5713C15.4262 29.2206 15.1419 28.9364 14.7913 28.9364Z" fill="black" stroke="black" stroke-width="0.5"/>
<path d="M40.3444 9.88901H18.0493C17.6872 9.88901 17.3936 10.173 17.3936 10.524V13.0637C17.3936 13.4146 17.6872 13.6986 18.0493 13.6986H40.3444C40.7065 13.6986 41.0002 13.4147 41.0002 13.0637V10.524C41.0002 10.173 40.7065 9.88901 40.3444 9.88901ZM39.6886 12.4286H18.7051V11.1588H39.6886V12.4286Z" fill="black" stroke="black" stroke-width="0.5"/>
<path d="M23.2806 10.3906L21.3134 1.50178C21.2375 1.15952 20.8895 0.94003 20.5347 1.01453C20.1806 1.08772 19.9549 1.42561 20.0308 1.76852L21.998 10.6573C22.0639 10.955 22.336 11.1589 22.6387 11.1589C22.6841 11.1589 22.7306 11.1544 22.7767 11.1446C23.1309 11.0714 23.3566 10.7334 23.2806 10.3906Z" fill="black" stroke="black" stroke-width="0.5"/>
</svg>
