<svg width="40" height="40" viewBox="0 0 40 40" fill="none" xmlns="http://www.w3.org/2000/svg">
<path d="M29.8734 7.65957C28.9451 7.40426 26.8354 6.7234 24.3038 5.87234L27.7637 1.02128L22.1097 0L14.7679 2.97872C12.1519 2.21277 9.95781 1.61702 8.94515 1.44681C2.36287 0.255319 0.253165 5.10638 0.168776 5.19149L0 5.53192L0.253165 5.95745C0.337553 6.04255 1.35021 8.59575 5.99156 9.44681C2.36287 12.766 0.253165 17.4468 0.253165 22.4681C0.253165 32.1702 8.10127 40 17.6371 40C27.173 40 35.0211 32.0851 35.0211 22.4681C35.0211 19.6596 34.346 16.8511 33.0802 14.383L40 4.76596L33.924 3.65957L29.8734 7.65957ZM22.2785 1.78723L24.8101 2.21277L22.616 5.3617C20.9283 4.85106 19.1561 4.25532 17.384 3.74468L22.2785 1.78723ZM9.62025 10.1277L10.6329 11.9149L10.3797 11.8298C10.1266 11.7447 9.87342 11.7447 9.62025 11.6596C9.19831 11.4894 8.86076 11.234 8.52321 10.9787L7.67932 10.383C7.8481 10.2128 8.10127 10.0426 8.27004 9.95745L9.62025 10.1277ZM18.0591 11.6596L19.1561 18.383L15.7806 17.7872L11.73 10.5532L18.0591 11.6596ZM16.962 22.7234C17.1308 23.3192 17.384 23.8298 17.6371 24.3404C17.9747 25.0213 18.3122 25.5319 18.2278 26.0426C18.1435 26.8085 17.1308 27.3191 16.7089 27.4894C16.4557 27.5745 16.1181 27.7447 15.865 27.8298C15.1899 28.0851 14.4304 28.3404 13.7553 28.8511C12.9114 29.4468 12.4051 30.2979 11.8987 31.1489C11.8143 31.234 11.73 31.4043 11.6456 31.4894C11.6456 31.4894 11.5612 31.4894 11.3924 31.5745C10.9705 31.6596 10.4641 31.5745 9.87342 31.5745C9.36709 31.5745 8.77637 31.4894 8.18565 31.5745C7.42616 31.5745 6.49789 32.0851 5.99156 32.766C5.99156 32.8511 5.90717 32.8511 5.90717 32.9362C5.82278 32.8511 5.7384 32.766 5.65401 32.6809L8.10126 29.617C9.45148 27.9149 9.02954 26.8085 8.60759 26.2979C8.52321 26.2128 8.35443 26.0426 8.27004 25.9574C8.18565 25.9574 8.18565 25.8723 8.10126 25.8723C8.01688 25.7872 8.10127 25.2766 8.43882 24.766C8.94515 24.0851 9.62025 22.9787 9.19831 21.8723C8.94515 21.1915 8.35443 20.766 7.8481 20.5106C7.59494 20.3404 7.42616 20.2553 7.25738 20.0851C6.75105 19.5745 6.91983 18.4681 7.173 17.3617C7.34177 16.5957 8.01688 14.2979 6.49789 13.0213C6.4135 12.9362 6.24473 12.8511 6.16034 12.766C5.99156 12.6809 5.7384 12.4255 5.7384 12.3404C5.7384 12.4255 5.82278 12.5106 5.7384 12.5957L5.56962 12.3404C5.82278 12.0851 6.07595 11.7447 6.32911 11.4894L7.42616 12.3404C7.8481 12.6809 8.35443 13.0213 8.94515 13.2766C9.2827 13.4468 9.62025 13.4468 9.95781 13.5319L11.5612 13.8723V13.7872L14.6835 19.3192L17.1308 19.7447C16.962 20.5957 16.7089 21.7021 16.962 22.7234ZM4.72574 13.5319C4.89451 13.7021 5.06329 13.8723 5.23207 13.9574C5.31646 14.0426 5.40084 14.0426 5.48523 14.1277C5.90717 14.5532 5.99156 15.4043 5.65401 16.766C5.40084 17.7872 4.89451 19.8298 6.07595 21.1064C6.32911 21.3617 6.66667 21.617 7.00422 21.7872C7.34177 21.9574 7.59494 22.1277 7.67932 22.2979C7.76371 22.6383 7.42616 23.234 7.08861 23.6596C6.24473 24.8511 6.16034 26.0426 6.83544 26.8085C6.91983 26.8936 7.08861 27.0638 7.173 27.1489C7.25738 27.1489 7.25738 27.234 7.34177 27.234C7.42616 27.3191 7.34177 27.7447 6.83544 28.4255L4.64135 31.1489C2.95359 28.5957 2.02532 25.617 2.02532 22.383C1.94093 19.234 2.95359 16.0851 4.72574 13.5319ZM7.173 34.2128C7.173 34.1277 7.173 33.9574 7.34177 33.7872C7.59494 33.4468 8.10126 33.1915 8.52321 33.1915C8.94515 33.1064 9.36709 33.1915 9.87342 33.1915C10.4641 33.2766 11.1392 33.2766 11.73 33.1915C11.9831 33.1915 12.3207 33.1064 12.5738 32.8511C12.9114 32.5957 13.1646 32.2553 13.3333 32C13.7553 31.234 14.1772 30.6383 14.7679 30.2128C15.1899 29.8723 15.7806 29.7021 16.3713 29.4468C16.7089 29.3617 16.962 29.1915 17.2996 29.1064C18.7342 28.5106 19.5781 27.4894 19.8312 26.383C20 25.2766 19.4937 24.4255 19.0717 23.5745C18.8186 23.1489 18.6498 22.7234 18.5654 22.383C18.3966 21.7021 18.5654 20.8511 18.7342 20.0851L21.1814 20.5106L19.7468 12L29.8734 13.8723C28.9451 14.0426 27.9325 14.383 27.4262 15.4043C27.3418 15.4894 27.3418 15.6596 27.2574 15.7447C27.173 15.8298 27.173 16 27.173 16C27.0886 16.1702 26.8354 16.2553 26.4979 16.4255C26.3291 16.5106 26.1603 16.5957 25.9916 16.6809C25.4852 17.0213 25.0633 17.5319 24.8945 18.1277C24.8945 18.2979 24.8945 18.383 24.8945 18.5532C24.7257 18.7234 24.4726 18.8085 24.2194 18.9787C23.9662 19.0638 23.7131 19.234 23.4599 19.4043C22.5316 20 21.6878 21.1064 22.1097 22.2979C22.2785 22.8085 22.616 23.1489 22.8692 23.4043C22.9536 23.5745 23.2068 23.7447 23.2068 23.8298C23.2068 23.9149 23.1224 24.0851 23.038 24.1702C22.9536 24.3404 22.7848 24.5957 22.7004 24.8511C22.1941 26.1277 22.9536 27.3191 23.3755 27.9149C23.7131 28.4255 24.2194 29.1064 24.8945 29.5319C25.0633 29.617 25.2321 29.7021 25.4008 29.7872C25.4852 29.8723 25.654 29.8723 25.7384 29.9574C26.2447 30.2128 26.4979 30.9787 26.7511 31.6596L26.9198 32C27.2574 32.9362 27.7637 33.7021 28.4388 34.1277C25.654 36.766 21.8565 38.4681 17.7215 38.4681C13.6709 38.2979 9.95781 36.766 7.173 34.2128ZM29.6203 32.6809C29.1139 32.5957 28.692 31.9149 28.4388 31.3191L28.3544 30.9787C28.0169 30.0426 27.5949 28.9362 26.5823 28.3404C26.4135 28.2553 26.2447 28.1702 26.076 28.0851C25.9916 28 25.8228 28 25.7384 27.9149C25.4008 27.7447 25.0633 27.234 24.8101 26.8085C24.4726 26.2979 24.135 25.7021 24.3038 25.3617C24.3038 25.2766 24.3882 25.1915 24.4726 25.0213C24.6413 24.766 24.9789 24.3404 24.9789 23.8298C24.9789 23.0638 24.4726 22.5532 24.135 22.1277C23.9662 21.9574 23.7975 21.7872 23.7131 21.617C23.6287 21.4468 23.9662 21.0213 24.3882 20.766C24.557 20.6809 24.8101 20.5106 24.9789 20.4255C25.4852 20.1702 26.076 19.9149 26.4979 19.4043L26.9198 18.8936L26.5823 18.383C26.5823 18.2979 26.7511 18.2128 26.8354 18.1277C26.9198 18.0426 27.0886 17.9574 27.173 17.9574C27.5949 17.7872 28.1013 17.5319 28.4388 16.9362C28.6076 16.766 28.692 16.5106 28.692 16.3404C28.692 16.2553 28.7764 16.1702 28.7764 16.0851C29.1139 15.4894 30.0422 15.234 31.5612 15.4043C32.5738 17.5319 33.1646 19.9149 33.1646 22.2979C33.4177 26.383 31.9831 29.9574 29.6203 32.6809ZM37.2996 5.95745L32.4051 12.5957L6.24473 7.82979C2.1097 6.97872 3.12236 6.38298 2.36287 5.53192C2.70042 5.02128 3.20675 4.25532 4.21941 3.65957C4.64135 4.34043 5.48523 5.19149 6.83544 5.61702L7.34177 4C6.66667 3.74468 6.16034 3.40426 5.90717 3.06383C6.66667 2.89362 7.59494 2.89362 8.69198 3.14894C12.2363 3.82979 29.6203 9.44681 29.789 9.44681L30.211 9.61702L34.4304 5.53192L37.2996 5.95745Z" fill="black"/>
</svg>
